<svg id="visual" viewBox="0 0 1920 1080" width="1920" height="1080" xmlns="http://www.w3.org/2000/svg" xmlns:xlink="http://www.w3.org/1999/xlink" version="1.1"><rect x="0" y="0" width="1920" height="1080" fill="#FFFFFF"></rect><path d="M0 361L45.7 368.8C91.3 376.7 182.7 392.3 274.2 439.7C365.7 487 457.3 566 548.8 568.3C640.3 570.7 731.7 496.3 823 466.2C914.3 436 1005.7 450 1097 470.5C1188.3 491 1279.7 518 1371.2 510.7C1462.7 503.3 1554.3 461.7 1645.8 455.7C1737.3 449.7 1828.7 479.3 1874.3 494.2L1920 509L1920 1081L1874.3 1081C1828.7 1081 1737.3 1081 1645.8 1081C1554.3 1081 1462.7 1081 1371.2 1081C1279.7 1081 1188.3 1081 1097 1081C1005.7 1081 914.3 1081 823 1081C731.7 1081 640.3 1081 548.8 1081C457.3 1081 365.7 1081 274.2 1081C182.7 1081 91.3 1081 45.7 1081L0 1081Z" fill="#e8f0fc" stroke-linecap="round" stroke-linejoin="miter"></path></svg>