<svg xmlns="http://www.w3.org/2000/svg" version="1.1" xmlns:xlink="http://www.w3.org/1999/xlink" xmlns:svgjs="http://svgjs.com/svgjs" width="1920" height="1080" preserveAspectRatio="none" viewBox="0 0 1920 1080"><g mask="url(&quot;#SvgjsMask1058&quot;)" fill="none"><rect width="1920" height="1080" x="0" y="0" fill="rgba(228, 241, 255, 1)"></rect><path d="M0,678.133C128.464,696.655,259.353,643.411,365.437,568.631C469.073,495.576,558.054,390.765,583.791,266.608C607.886,150.373,528.671,43.094,498.159,-71.624C471.857,-170.511,474.699,-276.793,416.816,-361.173C355.078,-451.173,267.663,-524.41,164.045,-558.687C58.615,-593.564,-54.486,-579.348,-162.302,-552.749C-273.953,-525.203,-385.558,-486.024,-465.512,-403.368C-547.759,-318.341,-613.194,-206.265,-611.881,-87.975C-610.618,25.85,-513.614,109.77,-458.711,209.486C-408.637,300.431,-376.078,397.997,-303.458,472.19C-216.18,561.359,-123.497,660.327,0,678.133" fill="#7abaff"></path><path d="M1920 1700.149C2043.498 1707.508 2170.473 1698.213 2278.163 1637.313 2389.092 1574.5819999999999 2476.723 1474.299 2526.684 1357.063 2575.949 1241.461 2565.578 1113.943 2554.548 988.766 2542.933 856.9490000000001 2553.406 705.938 2460.969 611.248 2368.975 517.012 2217.936 526.986 2087.322 510.153 1975.359 495.72299999999996 1860.464 478.369 1755.672 520.351 1655.489 560.486 1584.3890000000001 647.268 1523.184 736.1569999999999 1467.054 817.675 1449.391 913.629 1419.836 1008.087 1384.0819999999999 1122.359 1298.547 1233.646 1331.51 1348.754 1364.909 1465.383 1484.094 1534.009 1588.255 1596.205 1689.807 1656.8429999999998 1801.931 1693.114 1920 1700.149" fill="#ffffff"></path></g><defs><mask id="SvgjsMask1058"><rect width="1920" height="1080" fill="#ffffff"></rect></mask></defs></svg>